<svg xmlns="http://www.w3.org/2000/svg" width="13" height="13" viewBox="0 0 13 13">
  <metadata><?xpacket begin="﻿" id="W5M0MpCehiHzreSzNTczkc9d"?>
<x:xmpmeta xmlns:x="adobe:ns:meta/" x:xmptk="Adobe XMP Core 5.6-c138 79.159824, 2016/09/14-01:09:01        ">
   <rdf:RDF xmlns:rdf="http://www.w3.org/1999/02/22-rdf-syntax-ns#">
      <rdf:Description rdf:about=""/>
   </rdf:RDF>
</x:xmpmeta>
                                                                                                    
                                                                                                    
                                                                                                    
                                                                                                    
                                                                                                    
                                                                                                    
                                                                                                    
                                                                                                    
                                                                                                    
                                                                                                    
                                                                                                    
                                                                                                    
                                                                                                    
                                                                                                    
                                                                                                    
                                                                                                    
                                                                                                    
                                                                                                    
                                                                                                    
                                                                                                    
                           
<?xpacket end="w"?></metadata>
<defs>
    <style>
      .cls-1 {
        fill: #3e3e3e;
        fill-rule: evenodd;
      }
    </style>
  </defs>
  <path id="commensals_icon" data-name="commensals icon" class="cls-1" d="M534.891,2886.94c-1.681,0-3.047-1.67-3.047-3.71a4.16,4.16,0,0,1,.862-2.59,2.794,2.794,0,0,1,2.185-1.12c1.68,0,3.046,1.67,3.046,3.71S536.571,2886.94,534.891,2886.94Zm0-6.6c-1.233,0-2.236,1.29-2.236,2.89s1,2.89,2.236,2.89,2.234-1.29,2.234-2.89S536.122,2880.34,534.891,2880.34Zm3.473,10.66h-8.227a1.139,1.139,0,0,1-1.137-1.14,3.338,3.338,0,0,1,3.331-3.33,0.405,0.405,0,1,1,0,.81,2.522,2.522,0,0,0-2.519,2.52,0.329,0.329,0,0,0,.325.33h9.506a0.329,0.329,0,0,0,.326-0.33,2.523,2.523,0,0,0-2.52-2.52,0.405,0.405,0,1,1,0-.81,3.338,3.338,0,0,1,3.332,3.33,1.139,1.139,0,0,1-1.138,1.14h-1.279Zm0.281-7.96a0.3,0.3,0,0,1-.093-0.01,0.407,0.407,0,0,1-.3-0.49,3.662,3.662,0,0,0,.1-0.83c0-1.6-1-2.9-2.235-2.9a1.812,1.812,0,0,0-.921.26,0.4,0.4,0,0,1-.556-0.14,0.409,0.409,0,0,1,.142-0.56,2.663,2.663,0,0,1,1.335-.37c1.68,0,3.047,1.66,3.047,3.71a4.539,4.539,0,0,1-.116,1.02A0.411,0.411,0,0,1,538.645,2883.04Zm2.886,5.93a0.33,0.33,0,0,1-.165-0.04,0.4,0.4,0,0,1-.206-0.53,0.35,0.35,0,0,0,.027-0.14,2.471,2.471,0,0,0-2.437-2.54,0.405,0.405,0,1,1,0-.81,3.287,3.287,0,0,1,3.25,3.35,1.147,1.147,0,0,1-.1.47A0.406,0.406,0,0,1,541.531,2888.97Z" transform="translate(-529 -2878)"/>
</svg>
