<svg xmlns="http://www.w3.org/2000/svg" width="13" height="13" viewBox="0 0 13 13">
  <metadata><?xpacket begin="﻿" id="W5M0MpCehiHzreSzNTczkc9d"?>
<x:xmpmeta xmlns:x="adobe:ns:meta/" x:xmptk="Adobe XMP Core 5.6-c138 79.159824, 2016/09/14-01:09:01        ">
   <rdf:RDF xmlns:rdf="http://www.w3.org/1999/02/22-rdf-syntax-ns#">
      <rdf:Description rdf:about=""/>
   </rdf:RDF>
</x:xmpmeta>
                                                                                                    
                                                                                                    
                                                                                                    
                                                                                                    
                                                                                                    
                                                                                                    
                                                                                                    
                                                                                                    
                                                                                                    
                                                                                                    
                                                                                                    
                                                                                                    
                                                                                                    
                                                                                                    
                                                                                                    
                                                                                                    
                                                                                                    
                                                                                                    
                                                                                                    
                                                                                                    
                           
<?xpacket end="w"?></metadata>
<defs>
    <style>
      .cls-1 {
        fill: #555;
        fill-rule: evenodd;
      }
    </style>
  </defs>
  <path id="Date_icon" data-name="Date icon" class="cls-1" d="M540.781,2738.81a0.405,0.405,0,1,0,0,.81,0.412,0.412,0,0,1,.406.41v2.03H529.812v-2.03a0.413,0.413,0,0,1,.407-0.41,0.405,0.405,0,1,0,0-.81,1.223,1.223,0,0,0-1.219,1.22v9.75a1.223,1.223,0,0,0,1.219,1.22h10.562a1.223,1.223,0,0,0,1.219-1.22v-9.75A1.223,1.223,0,0,0,540.781,2738.81Zm0,11.38H530.219a0.413,0.413,0,0,1-.407-0.41v-6.91h11.375v6.91A0.412,0.412,0,0,1,540.781,2750.19Zm-9.344-9.75a0.406,0.406,0,0,0,.407-0.41v-1.62a0.407,0.407,0,1,0-.813,0v1.62A0.406,0.406,0,0,0,531.437,2740.44Zm1.625,0a0.406,0.406,0,0,0,.407-0.41v-1.62a0.407,0.407,0,1,0-.813,0v1.62A0.406,0.406,0,0,0,533.062,2740.44Zm1.625,0a0.406,0.406,0,0,0,.407-0.41v-1.62a0.407,0.407,0,1,0-.813,0v1.62A0.406,0.406,0,0,0,534.687,2740.44Zm1.625,0a0.406,0.406,0,0,0,.407-0.41v-1.62a0.407,0.407,0,1,0-.813,0v1.62A0.406,0.406,0,0,0,536.312,2740.44Zm1.625,0a0.406,0.406,0,0,0,.407-0.41v-1.62a0.407,0.407,0,1,0-.813,0v1.62A0.406,0.406,0,0,0,537.937,2740.44Zm1.625,0a0.406,0.406,0,0,0,.407-0.41v-1.62a0.407,0.407,0,1,0-.813,0v1.62A0.406,0.406,0,0,0,539.562,2740.44Zm-1.828,3.65a1.427,1.427,0,0,0-1.422,1.43,0.407,0.407,0,0,0,.813,0,0.61,0.61,0,1,1,.609.6,0.412,0.412,0,0,0-.406.41,0.406,0.406,0,0,0,.406.41,0.609,0.609,0,0,1,.61.61,0.61,0.61,0,1,1-1.219,0,0.407,0.407,0,1,0-.813,0A1.9,1.9,0,1,0,537.734,2744.09Zm-3.047,1.43a1.422,1.422,0,1,0-2.843,0,0.406,0.406,0,0,0,.812,0,0.61,0.61,0,1,1,1.219,0,3.177,3.177,0,0,1-.988,1.4,2.862,2.862,0,0,0-1.043,1.64,0.405,0.405,0,0,0,.406.41h2.031a0.405,0.405,0,1,0,0-.81h-1.409c0.169-.22.406-0.47,0.6-0.68A3.337,3.337,0,0,0,534.687,2745.52Z" transform="translate(-529 -2738)"/>
</svg>
