<svg xmlns="http://www.w3.org/2000/svg" width="13.344" height="13.34" viewBox="0 0 13.344 13.34">
  <metadata><?xpacket begin="﻿" id="W5M0MpCehiHzreSzNTczkc9d"?>
<x:xmpmeta xmlns:x="adobe:ns:meta/" x:xmptk="Adobe XMP Core 5.6-c138 79.159824, 2016/09/14-01:09:01        ">
   <rdf:RDF xmlns:rdf="http://www.w3.org/1999/02/22-rdf-syntax-ns#">
      <rdf:Description rdf:about=""/>
   </rdf:RDF>
</x:xmpmeta>
                                                                                                    
                                                                                                    
                                                                                                    
                                                                                                    
                                                                                                    
                                                                                                    
                                                                                                    
                                                                                                    
                                                                                                    
                                                                                                    
                                                                                                    
                                                                                                    
                                                                                                    
                                                                                                    
                                                                                                    
                                                                                                    
                                                                                                    
                                                                                                    
                                                                                                    
                                                                                                    
                           
<?xpacket end="w"?></metadata>
<defs>
    <style>
      .cls-1 {
        fill: #555;
        fill-rule: evenodd;
      }
    </style>
  </defs>
  <path id="Time_icon" data-name="Time icon" class="cls-1" d="M536.333,2807.67a6.665,6.665,0,1,0,6.667,6.66A6.672,6.672,0,0,0,536.333,2807.67Zm0,12.5a5.835,5.835,0,1,1,5.834-5.84A5.843,5.843,0,0,1,536.333,2820.17Zm1.089-5.24a1.223,1.223,0,0,0,.161-0.6,1.243,1.243,0,0,0-.833-1.17v-3.41a0.417,0.417,0,1,0-.833,0v3.41a1.245,1.245,0,0,0,.416,2.42,1.21,1.21,0,0,0,.467-0.09l1.739,1.74a0.417,0.417,0,0,0,.589-0.59Zm-1.089-.18a0.419,0.419,0,0,1-.416-0.42,0.417,0.417,0,0,1,.833,0A0.42,0.42,0,0,1,536.333,2814.75Z" transform="translate(-529.656 -2807.66)"/>
</svg>
