<svg xmlns="http://www.w3.org/2000/svg" width="12.75" height="12.75" viewBox="0 0 12.75 12.75">
  <metadata><?xpacket begin="﻿" id="W5M0MpCehiHzreSzNTczkc9d"?>
<x:xmpmeta xmlns:x="adobe:ns:meta/" x:xmptk="Adobe XMP Core 5.6-c138 79.159824, 2016/09/14-01:09:01        ">
   <rdf:RDF xmlns:rdf="http://www.w3.org/1999/02/22-rdf-syntax-ns#">
      <rdf:Description rdf:about=""/>
   </rdf:RDF>
</x:xmpmeta>
                                                                                                    
                                                                                                    
                                                                                                    
                                                                                                    
                                                                                                    
                                                                                                    
                                                                                                    
                                                                                                    
                                                                                                    
                                                                                                    
                                                                                                    
                                                                                                    
                                                                                                    
                                                                                                    
                                                                                                    
                                                                                                    
                                                                                                    
                                                                                                    
                                                                                                    
                                                                                                    
                           
<?xpacket end="w"?></metadata>
<defs>
    <style>
      .cls-1 {
        fill: #555;
        fill-rule: evenodd;
      }
    </style>
  </defs>
  <path id="User-icon" class="cls-1" d="M535.588,2676.8c-1.977,0-3.586-1.97-3.586-4.39a4.889,4.889,0,0,1,1.021-3.06,3.277,3.277,0,0,1,2.565-1.32c1.977,0,3.586,1.97,3.586,4.38S537.565,2676.8,535.588,2676.8Zm0-7.97c-1.538,0-2.79,1.61-2.79,3.58s1.252,3.59,2.79,3.59,2.789-1.61,2.789-3.59S537.126,2668.83,535.588,2668.83Zm3.785,11.95h-8.965a1.2,1.2,0,0,1-1.2-1.19A3.592,3.592,0,0,1,532.8,2676a0.4,0.4,0,0,1,0,.8,2.792,2.792,0,0,0-2.789,2.79,0.4,0.4,0,0,0,.4.39h10.36a0.4,0.4,0,0,0,.4-0.39,2.792,2.792,0,0,0-2.789-2.79,0.4,0.4,0,0,1,0-.8,3.592,3.592,0,0,1,3.586,3.59,1.2,1.2,0,0,1-1.195,1.19h-1.395Z" transform="translate(-529.219 -2668.03)"/>
</svg>
